<?xml version="1.0" standalone="no"?><!DOCTYPE svg PUBLIC "-//W3C//DTD SVG 1.1//EN" "http://www.w3.org/Graphics/SVG/1.1/DTD/svg11.dtd"><svg t="1601476767607" class="icon" viewBox="0 0 1024 1024" version="1.1" xmlns="http://www.w3.org/2000/svg" p-id="808" xmlns:xlink="http://www.w3.org/1999/xlink" width="200" height="200"><defs><style type="text/css"></style></defs><path d="M919.22 698.955c7.133 15.977 0.106 34.683-15.694 42.046l-0.481 0.22L537.52 904.398l-0.186 0.086a61.6 61.6 0 0 1-50.663 0.003l-0.193-0.089L120.955 741.22c-16.138-7.204-23.38-26.127-16.175-42.265 7.132-15.976 25.75-23.234 41.78-16.387l0.485 0.212L512 845.704 876.955 682.78c16.138-7.205 35.061 0.037 42.265 16.175z m0-200c7.133 15.977 0.106 34.683-15.694 42.046l-0.481 0.22L537.52 704.398l-0.186 0.086a61.6 61.6 0 0 1-50.663 0.003l-0.193-0.089L120.955 541.22c-16.138-7.204-23.38-26.127-16.175-42.265 7.132-15.976 25.75-23.234 41.78-16.387l0.485 0.212L512 645.704 876.955 482.78c16.138-7.205 35.061 0.037 42.265 16.175zM524.995 113.58l380.711 169.178c16.15 7.177 23.425 26.087 16.248 42.238a32 32 0 0 1-16.248 16.248L524.995 510.42a32 32 0 0 1-25.99 0L118.294 341.243c-16.15-7.177-23.425-26.087-16.248-42.238a32 32 0 0 1 16.248-16.248L499.005 113.58a32 32 0 0 1 25.99 0zM512 177.838L210.089 312l301.91 134.161L813.91 312 512 177.838z" p-id="809" fill="#bfbfbf"></path></svg>